<?xml version="1.0" encoding="UTF-8" standalone="no"?>
<svg
   version="1.2"
   viewBox="0 0 500 501"
   width="500"
   height="500"
   id="svg1"
   xmlns="http://www.w3.org/2000/svg"
   xmlns:svg="http://www.w3.org/2000/svg"
   xmlns:rdf="http://www.w3.org/1999/02/22-rdf-syntax-ns#"
   xmlns:cc="http://creativecommons.org/ns#"
   xmlns:dc="http://purl.org/dc/elements/1.1/">
  <title
     id="title1">ggibimi</title>
  <defs
     id="defs1" />
  <style
     id="style1">
		.s0 { fill: #f96f36 } 
	</style>
  <path
     id="path2"
     class="s0"
     d="m 252.5,113.1 c -18.8,0 -37.4,5.3 -52.8,15.7 -15.9,10.8 -32.9,30.6 -38.9,51.4 -8.5,29.5 -2.3,56 9.3,78.5 0.9,1.6 0.9,2 1.7,3.8 1.2,2.7 2.5,4.3 3.9,7.2 7.9,16.2 53.2,81.6 64.4,94.3 5.3,6 7.6,8.8 10.3,8.8 2.2,0 4.6,-1.9 9.1,-5.5 2.6,-2 3.8,-3.5 5.7,-6 7,-8.9 5,-5.3 -2.6,-22.8 -2.3,-5.2 -1.3,-6.8 -3.3,-9 0.5,-0.4 0.8,-0.5 0.9,-0.6 q 0,0.1 0,0.1 c 0,0 0.1,-0.1 0,-0.1 q 0,0 0,0 c 0,0 0,-0.1 0.4,-0.6 1.7,-2.1 11.7,-17.5 13.6,-18.9 0,5.2 -3.6,16.9 -1.4,25 1,3.5 1.9,3.8 3.5,6.2 4.8,0 4.9,-0.4 7.4,-2.9 8.4,-8.6 27.6,-40.5 33.4,-50.2 l 18,-33.8 c 1.5,-3 5.6,-12.2 5.7,-15.7 l -65.4,-22.6 c -3,-1 -8.5,-3.6 -12.7,-3.6 -1.7,0 -3.1,0.4 -4.1,1.4 -5.7,5.8 5.1,13.5 11.4,18.7 l 15,12.6 c 1.4,1.1 1.5,1.5 3,2.5 -3,4.6 -7.6,7.6 -12.3,10.5 -7.4,4.4 -15.6,6.3 -23.7,6.3 -11.4,0 -22.7,-3.7 -31.1,-9.3 -1.3,-0.8 -1.9,-1.4 -3.1,-2.4 -19.3,-15.9 -24.9,-41.9 -15,-64.1 7.8,-17.4 26.8,-30.5 48.5,-30.5 9.5,0 19.5,2.5 29.3,8.2 2.6,1.5 4.6,3.4 6.7,5.1 2.4,1.9 3.7,3.3 5.8,5.9 9.4,12.2 11.3,19.4 11.3,35.7 2.3,0.2 3.3,0.8 5,1.2 2.3,0.5 3.4,0.7 5.6,1.3 l 28.4,7.3 c 1.2,0.2 1.1,0.5 1.2,0.5 0.1,0 0.3,-0.2 1.2,-0.6 l 0.5,-1.9 c 0,-3.4 0.7,-6.1 0.7,-10.6 0,-20.4 -7.1,-44.4 -19.4,-59.4 -3.5,-4.3 -6.1,-8.2 -10.5,-11.6 -2.1,-1.7 -3.8,-3.3 -6,-5.1 -16.4,-13.7 -37.5,-20.4 -58.6,-20.4 z m 21.8,195.6 c 0.1,0 0.3,0.1 0.6,0.1 l -0.7,0.6 c 0,-0.6 0,-0.7 0.1,-0.7 z" />
  <metadata
     id="metadata1">
    <rdf:RDF>
      <cc:Work
         rdf:about="">
        <dc:title>ggibimi</dc:title>
      </cc:Work>
    </rdf:RDF>
  </metadata>
</svg>
