<svg xmlns="http://www.w3.org/2000/svg" xmlns:xlink="http://www.w3.org/1999/xlink" width="500" zoomAndPan="magnify" viewBox="0 0 375 374.999991" height="500" preserveAspectRatio="xMidYMid meet" version="1.2"><defs><clipPath id="b0b82e2e80"><path d="M 121 87.328125 L 263.738281 87.328125 L 263.738281 282.0625 L 121 282.0625 Z M 121 87.328125 "/></clipPath></defs><g id="a226892b52"><g clip-rule="nonzero" clip-path="url(#b0b82e2e80)"><path style=" stroke:none;fill-rule:nonzero;fill:#f96f36;fill-opacity:1;" d="M 209.203125 234.019531 C 209.273438 234.019531 209.410156 234.054688 209.6875 234.105469 L 209.171875 234.535156 C 209.171875 234.121094 209.117188 234.019531 209.203125 234.019531 Z M 192.828125 87.328125 C 178.796875 87.328125 164.800781 91.261719 153.289062 99.0625 C 141.3125 107.15625 128.609375 122.066406 124.089844 137.652344 C 117.6875 159.742188 122.363281 179.65625 131.078125 196.484375 C 131.71875 197.707031 131.769531 197.984375 132.355469 199.347656 C 133.21875 201.351562 134.203125 202.59375 135.253906 204.734375 C 141.191406 216.882812 175.136719 265.960938 183.578125 275.472656 C 187.546875 279.957031 189.273438 282.0625 191.273438 282.0625 C 192.914062 282.0625 194.761719 280.667969 198.140625 277.992188 C 200.09375 276.472656 200.972656 275.316406 202.421875 273.46875 C 207.667969 266.792969 206.167969 269.464844 200.4375 256.367188 C 198.730469 252.46875 199.488281 251.292969 197.988281 249.621094 C 198.367188 249.34375 198.539062 249.238281 198.625 249.1875 C 198.625 249.207031 198.625 249.207031 198.625 249.207031 C 198.644531 249.207031 198.675781 249.171875 198.660156 249.171875 C 198.660156 249.171875 198.644531 249.1875 198.625 249.1875 C 198.609375 249.171875 198.660156 249.050781 198.9375 248.722656 C 200.230469 247.117188 207.738281 235.605469 209.171875 234.535156 C 209.171875 238.417969 206.410156 247.1875 208.117188 253.296875 C 208.84375 255.9375 209.496094 256.109375 210.722656 257.9375 C 214.296875 257.9375 214.398438 257.644531 216.261719 255.746094 C 222.542969 249.308594 236.972656 225.390625 241.304688 218.140625 L 254.800781 192.789062 C 255.921875 190.546875 259.027344 183.59375 259.078125 181.003906 L 210.015625 164.039062 C 207.753906 163.28125 203.628906 161.328125 200.488281 161.328125 C 199.265625 161.328125 198.195312 161.621094 197.433594 162.382812 C 193.136719 166.730469 201.265625 172.511719 206.011719 176.394531 L 217.246094 185.835938 C 218.28125 186.714844 218.367188 187.007812 219.457031 187.75 C 217.210938 191.152344 213.777344 193.429688 210.238281 195.585938 C 204.71875 198.933594 198.554688 200.367188 192.464844 200.367188 C 183.90625 200.367188 175.484375 197.570312 169.132812 193.378906 C 168.164062 192.753906 167.71875 192.308594 166.820312 191.566406 C 152.339844 179.65625 148.128906 160.105469 155.585938 143.484375 C 161.453125 130.421875 175.671875 120.601562 191.964844 120.601562 C 199.089844 120.601562 206.597656 122.464844 213.96875 126.761719 C 215.867188 127.847656 217.367188 129.332031 218.957031 130.558594 C 220.785156 131.992188 221.769531 133.042969 223.285156 135.011719 C 230.363281 144.191406 231.8125 149.578125 231.8125 161.761719 C 233.484375 161.898438 234.246094 162.347656 235.539062 162.660156 C 237.230469 163.074219 238.09375 163.210938 239.734375 163.625 L 261.03125 169.164062 C 261.910156 169.300781 261.839844 169.492188 261.925781 169.492188 C 261.996094 169.492188 262.152344 169.371094 262.859375 169.042969 L 263.203125 167.664062 C 263.238281 165.109375 263.703125 163.039062 263.722656 159.671875 C 263.757812 144.398438 258.390625 126.347656 249.191406 115.097656 C 246.585938 111.886719 244.582031 109.019531 241.285156 106.433594 C 239.699219 105.171875 238.457031 103.949219 236.835938 102.617188 C 224.53125 92.367188 208.667969 87.328125 192.828125 87.328125 Z M 192.828125 87.328125 "/></g></g></svg>