<svg xmlns="http://www.w3.org/2000/svg" xmlns:xlink="http://www.w3.org/1999/xlink" width="250" zoomAndPan="magnify" viewBox="0 0 187.5 187.499992" height="250" preserveAspectRatio="xMidYMid meet" version="1.2"><defs><clipPath id="f142a267dc"><path d="M 60.160156 43.539062 L 131.28125 43.539062 L 131.28125 140.390625 L 60.160156 140.390625 Z M 60.160156 43.539062 "/></clipPath></defs><g id="e986e36492"><g clip-rule="nonzero" clip-path="url(#f142a267dc)"><path style=" stroke:none;fill-rule:nonzero;fill:#f96f36;fill-opacity:1;" d="M 104.160156 116.496094 C 104.191406 116.496094 104.261719 116.511719 104.398438 116.539062 L 104.140625 116.753906 C 104.140625 116.546875 104.117188 116.496094 104.160156 116.496094 Z M 96.011719 43.539062 C 89.035156 43.539062 82.074219 45.496094 76.347656 49.375 C 70.390625 53.402344 64.074219 60.816406 61.828125 68.566406 C 58.640625 79.554688 60.96875 89.457031 65.304688 97.828125 C 65.621094 98.4375 65.644531 98.574219 65.9375 99.253906 C 66.367188 100.246094 66.855469 100.867188 67.378906 101.929688 C 70.332031 107.972656 87.214844 132.382812 91.414062 137.113281 C 93.386719 139.34375 94.246094 140.390625 95.242188 140.390625 C 96.054688 140.390625 96.972656 139.695312 98.65625 138.367188 C 99.625 137.609375 100.0625 137.035156 100.785156 136.117188 C 103.394531 132.792969 102.648438 134.125 99.796875 127.609375 C 98.949219 125.671875 99.324219 125.085938 98.578125 124.253906 C 98.769531 124.117188 98.855469 124.066406 98.898438 124.039062 C 98.898438 124.046875 98.898438 124.046875 98.898438 124.046875 C 98.90625 124.046875 98.921875 124.03125 98.914062 124.03125 C 98.914062 124.03125 98.90625 124.039062 98.898438 124.039062 C 98.886719 124.03125 98.914062 123.972656 99.050781 123.808594 C 99.695312 123.011719 103.429688 117.285156 104.140625 116.753906 C 104.140625 118.683594 102.769531 123.042969 103.617188 126.082031 C 103.976562 127.394531 104.304688 127.480469 104.914062 128.390625 C 106.691406 128.390625 106.742188 128.246094 107.667969 127.300781 C 110.792969 124.101562 117.96875 112.203125 120.121094 108.597656 L 126.835938 95.992188 C 127.394531 94.875 128.9375 91.414062 128.964844 90.128906 L 104.5625 81.691406 C 103.4375 81.3125 101.386719 80.34375 99.824219 80.34375 C 99.214844 80.34375 98.683594 80.488281 98.304688 80.867188 C 96.167969 83.03125 100.210938 85.90625 102.570312 87.835938 L 108.15625 92.53125 C 108.671875 92.96875 108.714844 93.117188 109.257812 93.484375 C 108.140625 95.175781 106.433594 96.308594 104.671875 97.382812 C 101.925781 99.046875 98.863281 99.757812 95.832031 99.757812 C 91.574219 99.757812 87.386719 98.367188 84.226562 96.28125 C 83.746094 95.972656 83.523438 95.75 83.078125 95.382812 C 75.878906 89.457031 73.78125 79.734375 77.492188 71.46875 C 80.410156 64.972656 87.480469 60.085938 95.582031 60.085938 C 99.128906 60.085938 102.863281 61.015625 106.527344 63.152344 C 107.472656 63.691406 108.21875 64.429688 109.007812 65.039062 C 109.917969 65.753906 110.40625 66.277344 111.164062 67.253906 C 114.679688 71.820312 115.402344 74.5 115.402344 80.558594 C 116.234375 80.628906 116.613281 80.851562 117.257812 81.003906 C 118.097656 81.210938 118.527344 81.277344 119.339844 81.484375 L 129.933594 84.242188 C 130.371094 84.308594 130.335938 84.402344 130.378906 84.402344 C 130.414062 84.402344 130.492188 84.34375 130.84375 84.179688 L 131.015625 83.492188 C 131.03125 82.222656 131.265625 81.195312 131.273438 79.519531 C 131.289062 71.921875 128.621094 62.945312 124.046875 57.351562 C 122.75 55.753906 121.753906 54.328125 120.113281 53.039062 C 119.324219 52.414062 118.707031 51.804688 117.898438 51.144531 C 111.78125 46.046875 103.890625 43.539062 96.011719 43.539062 Z M 96.011719 43.539062 "/></g></g></svg>