<?xml version="1.0" encoding="UTF-8" standalone="no"?>
<svg
   width="500"
   zoomAndPan="magnify"
   viewBox="0 0 375 374.999991"
   height="500"
   preserveAspectRatio="xMidYMid meet"
   version="1.2"
   id="svg2"
   xmlns="http://www.w3.org/2000/svg"
   xmlns:svg="http://www.w3.org/2000/svg">
  <defs
     id="defs1">
    <clipPath
       id="69b7dfc46e">
      <path
         d="M 121 87.328125 L 263.738281 87.328125 L 263.738281 282.0625 L 121 282.0625 Z M 121 87.328125 "
         id="path1" />
    </clipPath>
  </defs>
  <g
     id="868fb754fc"
     transform="matrix(10.961539,0,0,11.038461,-2711.5384,-2350.9615)">
    <rect
       x="0"
       width="375"
       y="0"
       height="375"
       style="fill:#ffffff;fill-opacity:1;stroke:none"
       id="rect1" />
    <rect
       x="0"
       width="375"
       y="0"
       height="375"
       style="fill:#ffffff;fill-opacity:1;stroke:none"
       id="rect2" />
    <g
       clip-rule="nonzero"
       clip-path="url(#69b7dfc46e)"
       id="g2">
      <path
         style="fill:#f96f36;fill-opacity:1;fill-rule:nonzero;stroke:none"
         d="m 209.20312,234.01953 c 0.0703,0 0.20704,0.0352 0.48438,0.0859 l -0.51563,0.42969 c 0,-0.41407 -0.0547,-0.51563 0.0312,-0.51563 z m -16.375,-146.691405 c -14.03125,0 -28.02734,3.933594 -39.53906,11.734375 -11.97656,8.09375 -24.67969,23.00391 -29.19922,38.58984 -6.40234,22.08985 -1.72656,42.00391 6.98828,58.83203 0.64063,1.22266 0.69141,1.5 1.27735,2.86329 0.86328,2.0039 1.84765,3.24609 2.89844,5.38671 5.9375,12.14844 39.88281,61.22657 48.32421,70.73829 3.96875,4.48437 5.69532,6.58984 7.69532,6.58984 1.64062,0 3.48828,-1.39453 6.86718,-4.07031 1.95313,-1.51953 2.83204,-2.67578 4.28125,-4.52344 5.2461,-6.67578 3.7461,-4.00391 -1.98437,-17.10156 -1.70703,-3.89844 -0.94922,-5.07422 -2.44922,-6.7461 0.37891,-0.27734 0.55078,-0.38281 0.63672,-0.43359 0,0.0195 0,0.0195 0,0.0195 0.0195,0 0.0508,-0.0352 0.0352,-0.0352 0,0 -0.0156,0.0156 -0.0352,0.0156 -0.0156,-0.0156 0.0352,-0.13672 0.3125,-0.46484 1.29297,-1.60547 8.80078,-13.11719 10.23437,-14.1875 0,3.88281 -2.76171,12.65234 -1.05468,18.76171 0.72656,2.64063 1.3789,2.8125 2.60547,4.64063 3.57421,0 3.67578,-0.29297 5.53906,-2.19141 6.28125,-6.4375 20.71094,-30.35547 25.04297,-37.60547 l 13.49609,-25.35156 c 1.12109,-2.24219 4.22656,-9.19531 4.27734,-11.78515 l -49.0625,-16.96485 c -2.26171,-0.75781 -6.38671,-2.71094 -9.52734,-2.71094 -1.22266,0 -2.29297,0.29297 -3.05469,1.05469 -4.29687,4.34766 3.83203,10.12891 8.57813,14.01172 l 11.23437,9.44141 c 1.03516,0.8789 1.1211,1.17187 2.21094,1.91406 -2.24609,3.40234 -5.67969,5.67969 -9.21875,7.83594 -5.51953,3.34765 -11.68359,4.78125 -17.77344,4.78125 -8.55859,0 -16.98047,-2.79688 -23.33203,-6.98828 -0.96875,-0.625 -1.41406,-1.07032 -2.3125,-1.8125 -14.48047,-11.91016 -18.6914,-31.46094 -11.23437,-48.08204 5.86718,-13.0625 20.08593,-22.88281 36.3789,-22.88281 7.125,0 14.63282,1.86328 22.00391,6.16016 1.89844,1.08594 3.39844,2.57031 4.98828,3.79687 1.82813,1.4336 2.8125,2.48438 4.32813,4.45313 7.07812,9.17969 8.52734,14.5664 8.52734,26.75 1.67187,0.13672 2.43359,0.58594 3.72656,0.89844 1.69141,0.41406 2.55469,0.55078 4.19531,0.96484 l 21.29688,5.53906 c 0.87891,0.13672 0.80859,0.32813 0.89453,0.32813 0.0703,0 0.22656,-0.1211 0.93359,-0.44922 l 0.34375,-1.37891 c 0.0352,-2.55469 0.5,-4.625 0.51954,-7.99219 0.0351,-15.27343 -5.33204,-33.32421 -14.53125,-44.57421 -2.60547,-3.21094 -4.60938,-6.07813 -7.90625,-8.66407 -1.58594,-1.26171 -2.82813,-2.48437 -4.44922,-3.8164 C 224.53125,92.367188 208.66797,87.328125 192.82812,87.328125 Z m 0,0"
         id="path2" />
    </g>
  </g>
</svg>
