<svg xmlns="http://www.w3.org/2000/svg" xmlns:xlink="http://www.w3.org/1999/xlink" width="250" zoomAndPan="magnify" viewBox="0 0 187.5 187.499992" height="250" preserveAspectRatio="xMidYMid meet" version="1.2"><defs><clipPath id="9f2424e6b7"><path d="M 3 70.144531 L 36.914062 70.144531 L 36.914062 116 L 3 116 Z M 3 70.144531 "/></clipPath></defs><g id="84c504160d"><path style=" stroke:none;fill-rule:nonzero;fill:#ffffff;fill-opacity:1;" d="M 0 0 L 187 0 L 187 187 L 0 187 Z M 0 0 "/><path style=" stroke:none;fill-rule:nonzero;fill:#ff914d;fill-opacity:1;" d="M 0 0 L 187 0 L 187 187 L 0 187 Z M 0 0 "/><g clip-rule="nonzero" clip-path="url(#9f2424e6b7)"><path style=" stroke:none;fill-rule:nonzero;fill:#ffffff;fill-opacity:1;" d="M 23.90625 104.667969 C 23.921875 104.667969 23.953125 104.679688 24.015625 104.6875 L 23.894531 104.792969 C 23.894531 104.695312 23.882812 104.667969 23.90625 104.667969 Z M 20.011719 70.144531 C 16.691406 70.144531 13.367188 71.070312 10.632812 72.902344 C 7.792969 74.808594 4.777344 78.320312 3.703125 81.992188 C 2.183594 87.1875 3.296875 91.875 5.363281 95.832031 C 5.519531 96.125 5.527344 96.1875 5.667969 96.507812 C 5.871094 96.980469 6.101562 97.277344 6.355469 97.777344 C 7.765625 100.632812 15.820312 112.183594 17.824219 114.425781 C 18.761719 115.476562 19.167969 115.976562 19.648438 115.976562 C 20.039062 115.976562 20.472656 115.644531 21.28125 115.019531 C 21.742188 114.660156 21.945312 114.382812 22.292969 113.953125 C 23.539062 112.382812 23.179688 113.007812 21.820312 109.929688 C 21.414062 109.007812 21.597656 108.734375 21.238281 108.335938 C 21.328125 108.273438 21.371094 108.25 21.390625 108.238281 C 21.398438 108.238281 21.410156 108.234375 21.402344 108.234375 C 21.402344 108.234375 21.398438 108.234375 21.390625 108.238281 C 21.386719 108.234375 21.402344 108.207031 21.46875 108.125 C 21.773438 107.75 23.554688 105.039062 23.894531 104.792969 C 23.894531 105.707031 23.238281 107.765625 23.640625 109.203125 C 23.820312 109.828125 23.972656 109.863281 24.257812 110.296875 C 25.105469 110.296875 25.132812 110.226562 25.578125 109.777344 C 27.066406 108.265625 30.492188 102.640625 31.515625 100.929688 L 34.722656 94.960938 C 34.984375 94.433594 35.726562 92.800781 35.738281 92.1875 L 24.09375 88.199219 C 23.5625 88.015625 22.578125 87.558594 21.832031 87.558594 C 21.542969 87.558594 21.289062 87.628906 21.113281 87.808594 C 20.085938 88.835938 22.019531 90.191406 23.148438 91.105469 L 25.808594 93.328125 C 26.058594 93.535156 26.074219 93.601562 26.335938 93.777344 C 25.800781 94.582031 24.988281 95.113281 24.144531 95.625 C 22.835938 96.410156 21.375 96.75 19.933594 96.75 C 17.902344 96.75 15.902344 96.085938 14.390625 95.101562 C 14.167969 94.957031 14.058594 94.847656 13.84375 94.671875 C 10.410156 91.875 9.410156 87.269531 11.179688 83.363281 C 12.570312 80.285156 15.949219 77.976562 19.8125 77.976562 C 21.5 77.976562 23.28125 78.414062 25.03125 79.425781 C 25.484375 79.683594 25.835938 80.027344 26.214844 80.316406 C 26.648438 80.65625 26.882812 80.902344 27.242188 81.367188 C 28.925781 83.523438 29.269531 84.792969 29.269531 87.660156 C 29.664062 87.695312 29.847656 87.800781 30.152344 87.875 C 30.550781 87.96875 30.761719 88 31.148438 88.101562 L 36.203125 89.40625 C 36.40625 89.4375 36.390625 89.480469 36.414062 89.480469 C 36.429688 89.480469 36.464844 89.453125 36.632812 89.371094 L 36.714844 89.050781 C 36.722656 88.453125 36.835938 87.960938 36.835938 87.171875 C 36.847656 83.578125 35.570312 79.328125 33.390625 76.675781 C 32.773438 75.925781 32.300781 75.25 31.515625 74.640625 C 31.136719 74.347656 30.847656 74.054688 30.460938 73.742188 C 27.539062 71.328125 23.777344 70.144531 20.011719 70.144531 Z M 20.011719 70.144531 "/></g><path style=" stroke:none;fill-rule:nonzero;fill:#ffffff;fill-opacity:1;" d="M 54.980469 94.125 L 54.980469 88.941406 L 65.910156 88.941406 L 65.910156 102.671875 C 64.589844 103.417969 63.039062 104.007812 61.25 104.457031 C 59.472656 104.914062 57.601562 105.144531 55.625 105.144531 C 53.53125 105.144531 51.609375 104.804688 49.847656 104.132812 C 48.097656 103.476562 46.574219 102.53125 45.273438 101.292969 C 43.988281 100.0625 42.984375 98.59375 42.269531 96.882812 C 41.550781 95.175781 41.195312 93.28125 41.195312 91.199219 C 41.195312 89.089844 41.550781 87.1875 42.269531 85.476562 C 43 83.753906 44.007812 82.28125 45.296875 81.042969 C 46.59375 79.792969 48.109375 78.84375 49.828125 78.179688 C 51.554688 77.523438 53.425781 77.191406 55.433594 77.191406 C 57.519531 77.191406 59.453125 77.523438 61.230469 78.179688 C 63.015625 78.84375 64.476562 79.71875 65.609375 80.804688 L 61.660156 85.367188 C 60.984375 84.59375 60.15625 83.992188 59.167969 83.558594 C 58.179688 83.117188 57.042969 82.894531 55.753906 82.894531 C 54.25 82.894531 52.902344 83.257812 51.71875 83.992188 C 50.523438 84.722656 49.597656 85.710938 48.925781 86.960938 C 48.25 88.207031 47.917969 89.625 47.917969 91.199219 C 47.917969 92.78125 48.222656 94.203125 48.839844 95.460938 C 49.453125 96.726562 50.363281 97.71875 51.566406 98.453125 C 52.769531 99.183594 54.234375 99.550781 55.96875 99.550781 C 57.699219 99.550781 59.0625 99.269531 60.046875 98.710938 L 60.046875 94.125 Z M 54.980469 94.125 "/><path style=" stroke:none;fill-rule:nonzero;fill:#ffffff;fill-opacity:1;" d="M 80.382812 105.101562 C 78.476562 105.101562 76.738281 104.691406 75.164062 103.875 C 73.585938 103.046875 72.332031 101.875 71.386719 100.367188 C 70.441406 98.859375 69.96875 97.085938 69.96875 95.03125 C 69.96875 92.964844 70.441406 91.195312 71.386719 89.714844 C 72.332031 88.226562 73.585938 87.078125 75.164062 86.273438 C 76.738281 85.453125 78.476562 85.046875 80.382812 85.046875 C 82.273438 85.046875 84 85.453125 85.578125 86.273438 C 87.167969 87.078125 88.441406 88.226562 89.402344 89.714844 C 90.359375 91.195312 90.839844 92.964844 90.839844 95.03125 C 90.839844 97.085938 90.359375 98.859375 89.402344 100.367188 C 88.441406 101.875 87.167969 103.046875 85.578125 103.875 C 84 104.691406 82.273438 105.101562 80.382812 105.101562 Z M 80.40625 99.851562 C 81.351562 99.851562 82.15625 99.628906 82.832031 99.183594 C 83.503906 98.726562 84.019531 98.128906 84.378906 97.398438 C 84.730469 96.664062 84.914062 95.878906 84.914062 95.03125 C 84.914062 94.167969 84.726562 93.382812 84.355469 92.664062 C 83.980469 91.949219 83.460938 91.367188 82.789062 90.921875 C 82.128906 90.460938 81.328125 90.230469 80.382812 90.230469 C 79.449219 90.230469 78.648438 90.460938 77.976562 90.921875 C 77.300781 91.367188 76.785156 91.949219 76.433594 92.664062 C 76.074219 93.382812 75.894531 94.167969 75.894531 95.03125 C 75.894531 95.878906 76.074219 96.664062 76.433594 97.398438 C 76.785156 98.128906 77.3125 98.726562 78 99.183594 C 78.6875 99.628906 79.488281 99.851562 80.40625 99.851562 Z M 80.40625 99.851562 "/><path style=" stroke:none;fill-rule:nonzero;fill:#ffffff;fill-opacity:1;" d="M 107.726562 94.125 L 107.726562 88.941406 L 118.65625 88.941406 L 118.65625 102.671875 C 117.335938 103.417969 115.78125 104.007812 113.996094 104.457031 C 112.21875 104.914062 110.34375 105.144531 108.371094 105.144531 C 106.277344 105.144531 104.355469 104.804688 102.59375 104.132812 C 100.84375 103.476562 99.316406 102.53125 98.019531 101.292969 C 96.730469 100.0625 95.726562 98.59375 95.011719 96.882812 C 94.292969 95.175781 93.9375 93.28125 93.9375 91.199219 C 93.9375 89.089844 94.292969 87.1875 95.011719 85.476562 C 95.742188 83.753906 96.753906 82.28125 98.039062 81.042969 C 99.339844 79.792969 100.851562 78.84375 102.570312 78.179688 C 104.300781 77.523438 106.167969 77.191406 108.175781 77.191406 C 110.265625 77.191406 112.195312 77.523438 113.972656 78.179688 C 115.761719 78.84375 117.222656 79.71875 118.355469 80.804688 L 114.402344 85.367188 C 113.726562 84.59375 112.898438 83.992188 111.914062 83.558594 C 110.925781 83.117188 109.785156 82.894531 108.496094 82.894531 C 106.996094 82.894531 105.648438 83.257812 104.460938 83.992188 C 103.269531 84.722656 102.339844 85.710938 101.667969 86.960938 C 100.992188 88.207031 100.660156 89.625 100.660156 91.199219 C 100.660156 92.78125 100.964844 94.203125 101.582031 95.460938 C 102.195312 96.726562 103.109375 97.71875 104.3125 98.453125 C 105.511719 99.183594 106.980469 99.550781 108.710938 99.550781 C 110.441406 99.550781 111.804688 99.269531 112.792969 98.710938 L 112.792969 94.125 Z M 107.726562 94.125 "/><path style=" stroke:none;fill-rule:nonzero;fill:#ffffff;fill-opacity:1;" d="M 133.019531 105.101562 C 131.171875 105.101562 129.460938 104.703125 127.886719 103.917969 C 126.308594 103.132812 125.054688 101.992188 124.109375 100.496094 C 123.175781 99.007812 122.710938 97.203125 122.710938 95.09375 C 122.710938 93.0625 123.164062 91.296875 124.066406 89.800781 C 124.96875 88.292969 126.175781 87.128906 127.695312 86.292969 C 129.226562 85.464844 130.941406 85.046875 132.847656 85.046875 C 134.765625 85.046875 136.421875 85.46875 137.832031 86.316406 C 139.246094 87.164062 140.347656 88.335938 141.136719 89.84375 C 141.921875 91.351562 142.316406 93.105469 142.316406 95.09375 C 142.316406 95.351562 142.316406 95.621094 142.316406 95.890625 C 142.316406 96.148438 142.300781 96.398438 142.273438 96.621094 L 128.617188 96.621094 C 128.660156 97.34375 128.898438 97.996094 129.328125 98.582031 C 129.757812 99.15625 130.296875 99.609375 130.957031 99.9375 C 131.628906 100.253906 132.355469 100.410156 133.128906 100.410156 C 134.117188 100.410156 134.957031 100.207031 135.660156 99.785156 C 136.375 99.371094 136.914062 98.898438 137.273438 98.367188 L 141.652344 100.96875 C 140.75 102.292969 139.554688 103.308594 138.066406 104.027344 C 136.589844 104.742188 134.910156 105.101562 133.019531 105.101562 Z M 128.574219 92.941406 L 136.734375 92.941406 C 136.703125 91.925781 136.359375 91.066406 135.703125 90.359375 C 135.042969 89.644531 134.097656 89.285156 132.871094 89.285156 C 131.652344 89.285156 130.648438 89.660156 129.863281 90.402344 C 129.089844 91.136719 128.660156 91.984375 128.574219 92.941406 Z M 128.574219 92.941406 "/><path style=" stroke:none;fill-rule:nonzero;fill:#ffffff;fill-opacity:1;" d="M 153.449219 104.886719 C 149.09375 104.886719 146.917969 102.777344 146.917969 98.558594 L 146.917969 90.253906 L 143.804688 90.253906 L 143.804688 85.667969 L 146.875 85.667969 L 146.875 80.914062 L 152.910156 80.914062 L 152.910156 85.667969 L 157.398438 85.667969 L 157.398438 90.253906 L 152.910156 90.253906 L 152.910156 97.460938 C 152.910156 98.453125 153.109375 99.15625 153.511719 99.570312 C 153.925781 99.976562 154.527344 100.171875 155.316406 100.171875 C 156.003906 100.171875 156.605469 100.054688 157.121094 99.808594 L 157.183594 104.328125 C 156.738281 104.5 156.179688 104.632812 155.507812 104.734375 C 154.847656 104.832031 154.160156 104.886719 153.449219 104.886719 Z M 153.449219 104.886719 "/><path style=" stroke:none;fill-rule:nonzero;fill:#ffffff;fill-opacity:1;" d="M 163.523438 83 C 162.578125 83 161.761719 82.671875 161.078125 82.011719 C 160.398438 81.355469 160.066406 80.558594 160.066406 79.621094 C 160.066406 78.707031 160.398438 77.910156 161.078125 77.234375 C 161.761719 76.5625 162.578125 76.222656 163.523438 76.222656 C 164.453125 76.222656 165.253906 76.554688 165.929688 77.210938 C 166.617188 77.875 166.960938 78.675781 166.960938 79.621094 C 166.960938 80.558594 166.617188 81.355469 165.929688 82.011719 C 165.253906 82.671875 164.453125 83 163.523438 83 Z M 166.574219 104.476562 L 160.410156 104.476562 L 160.410156 85.667969 L 166.574219 85.667969 Z M 166.574219 104.476562 "/><path style=" stroke:none;fill-rule:nonzero;fill:#ffffff;fill-opacity:1;" d="M 178.796875 104.886719 C 174.441406 104.886719 172.269531 102.777344 172.269531 98.558594 L 172.269531 90.253906 L 169.15625 90.253906 L 169.15625 85.667969 L 172.226562 85.667969 L 172.226562 80.914062 L 178.261719 80.914062 L 178.261719 85.667969 L 182.746094 85.667969 L 182.746094 90.253906 L 178.261719 90.253906 L 178.261719 97.460938 C 178.261719 98.453125 178.457031 99.15625 178.859375 99.570312 C 179.273438 99.976562 179.875 100.171875 180.664062 100.171875 C 181.351562 100.171875 181.953125 100.054688 182.46875 99.808594 L 182.53125 104.328125 C 182.085938 104.5 181.527344 104.632812 180.859375 104.734375 C 180.199219 104.832031 179.511719 104.886719 178.796875 104.886719 Z M 178.796875 104.886719 "/></g></svg>